<svg width="28" height="28" viewBox="0 0 28 28" fill="none" xmlns="http://www.w3.org/2000/svg">
<g clip-path="url(#clip0)">
<path d="M0.911499 28H9.96955C14.2647 28 17.7467 24.3508 17.7467 19.8493H8.68861C4.39343 19.8493 0.911499 23.4985 0.911499 28Z" fill="#FF0000"/>
<path d="M1.31677 8.15069V20.137C5.61195 20.137 9.09388 16.4878 9.09388 11.9863V0C4.7987 0 1.31677 3.64919 1.31677 8.15069Z" fill="#5200AF"/>
<path d="M26.5302 0H17.4722C13.177 0 9.69507 3.64919 9.69507 8.15068H18.7531C23.0483 8.15068 26.5302 4.5015 26.5302 0Z" fill="#FFD700"/>
<path d="M26.5303 19.3699V7.38358C22.2351 7.38358 18.7532 11.0328 18.7532 15.5343V27.5206C23.0484 27.5206 26.5303 23.8714 26.5303 19.3699Z" fill="#5200AF"/>
</g>
<defs>
<clipPath id="clip0">
<rect width="26.7167" height="28" fill="white" transform="translate(0.362549)"/>
</clipPath>
</defs>
</svg>
